# xmcd
#
# Track frame offsets: 
#        150
#        14250
#        31757
#        35287
#        49482
#        59785
#        72197
#        84185
#        94852
#        107582
#        131032
#        147137
#        164920
#        170997
#        194650
#        212070
#        234645
#        250575
#
# Disc length: 3567 seconds
#
# Revision: 4
# Processed by: cddbd v1.5.2PL0 Copyright (c) Steve Scherf et al.
# Submitted via: ExactAudioCopyFreeDBPlugin 1.0
#
DISCID=090ded12
DTITLE=The Chicago Blues Band Boys -  Blues Brothers 2000 (Cover)
DYEAR=1998
DGENRE=R&B
TTITLE0=Jack Mack And The Heart Attack - Born In Chicago
TTITLE1=Jack Mack And The Heart Attack - The Blues Don't Bother Me
TTITLE2=Jack Mack And The Heart Attack - Harmonica Musing
TTITLE3=Jack Mack And The Heart Attack - Cheaper To Keep Her
TTITLE4=Jack Mack And The Heart Attack - Who's Making Love
TTITLE5=Jack Mack And The Heart Attack - Looking For A Fox
TTITLE6=Jack Mack And The Heart Attack - I Can't Turn You Loose
TTITLE7=Jack Mack And The Heart Attack - Respect
TTITLE8=Jack Mack And The Heart Attack - 634-5789 (Soulsville U.S.A.)
TTITLE9=Jack Mack And The Heart Attack - Maybe I'm Wrong
TTITLE10=Jack Mack And The Heart Attack - Riders In The Sky
TTITLE11=Jack Mack And The Heart Attack - John The Relevator
TTITLE12=Jack Mack And The Heart Attack - Let There Be Drums
TTITLE13=Jack Mack And The Heart Attack - Season Of The Witch
TTITLE14=Jack Mack And The Heart Attack - Funky Nassau
TTITLE15=Jack Mack And The Heart Attack - How Blue Can You Get
TTITLE16=Jack Mack And The Heart Attack - Turn On Your Love Light
TTITLE17=Jack Mack And The Heart Attack - New Orleans
EXTD=
EXTT0=
EXTT1=
EXTT2=
EXTT3=
EXTT4=
EXTT5=
EXTT6=
EXTT7=
EXTT8=
EXTT9=
EXTT10=
EXTT11=
EXTT12=
EXTT13=
EXTT14=
EXTT15=
EXTT16=
EXTT17=
PLAYORDER=
